<svg width="32" height="32" viewBox="0 0 32 32" fill="none" xmlns="http://www.w3.org/2000/svg">
<circle cx="16" cy="16" r="16" fill="#FFC54D"/>
<path fill-rule="evenodd" clip-rule="evenodd" d="M8.81859 14.6903L11.1601 10.6587C13.3112 6.95059 18.6888 6.95059 20.8399 10.6531L23.1814 14.6903C25.3324 18.3984 22.6436 23.0322 18.3415 23.0322H13.6585C9.35636 23.0322 6.66754 18.3984 8.81859 14.6903ZM12.9051 17.2256L13.2306 16.6687C13.5329 16.1575 14.2847 16.1575 14.5831 16.6687L14.9087 17.2256C15.2109 17.7368 14.835 18.3776 14.2343 18.3776H13.5794C12.9787 18.3776 12.6067 17.7368 12.9051 17.2256ZM12.144 14.5211C13.2025 12.6888 15.8436 12.6888 16.9021 14.5211L16.9028 14.5223L17.8435 16.1609L17.8439 16.1615C18.9013 17.9933 17.5794 20.2853 15.4669 20.2853H13.5793C11.4667 20.2853 10.1448 17.9932 11.2023 16.1615L11.2027 16.1609L12.1434 14.5223L12.144 14.5211ZM12.997 15.0131L12.9966 15.0136L12.0559 16.6522L12.0553 16.6534C11.3755 17.8301 12.226 19.3007 13.5793 19.3007H15.4669C16.8202 19.3007 17.6706 17.8301 16.9909 16.6534L16.9902 16.6522L16.0495 15.0136L16.0492 15.013C15.3696 13.8376 13.6765 13.8376 12.997 15.0131ZM19.1613 12.2946L19.1608 12.2938C17.4161 9.25131 13.0275 9.25431 11.2731 12.2932L11.273 12.2933L9.5685 15.2443L9.56845 15.2444C7.81354 18.2842 10.0039 22.0852 13.515 22.0852H16.9185C20.4297 22.0852 22.62 18.2842 20.8651 15.2444L20.865 15.2443L19.1613 12.2946ZM12.1257 12.7855C13.5027 10.4004 16.9422 10.4032 18.307 12.7842L18.3078 12.7856L20.0123 15.7367L20.0124 15.7368C21.3889 18.1213 19.6704 21.1006 16.9185 21.1006H13.515C10.7631 21.1006 9.04462 18.1213 10.4211 15.7368L10.4212 15.7367L12.1257 12.7856L12.1257 12.7855Z" fill="#552822"/>
</svg>
