<svg id="Layer_1" data-name="Layer 1" xmlns="http://www.w3.org/2000/svg" viewBox="0 0 1023.908 736.012" width="486px" height="354.96875px">
  <path d="M953.27,736.012a70.638,70.638,0,0,0,70.568-73.764c-2.324-52.562-29.2-126.78-135.144-200.951C759.5,370.848,817.77,110.429,543.271,128.4S294.944,338.821,126.628,427.03C19.487,483.18.007,593.043,0,665.486a70.592,70.592,0,0,0,70.635,70.526Z" fill="#f3f5fd"></path>
  <rect x="173.918" y="182.73" width="537.616" height="366.261" rx="40.286" fill="#c1d8ed"></rect>
  <g>
    <g>
      <path d="M813.116,286.828s-8.344-5.854-5.8-12.042,8.386-8.636,17.1-5.156c6.195,2.475,7.194,1.071,12.943-.861,3.293-1.106,13.395.851,15.056,8.064,1.78,7.726,10.89,2.789,10.161,14.923-.61,10.155-4.2,23-16.492,30.4" fill="#0f1011"></path>
      <g>
        <path d="M842.385,344.936s-7.164-5.028-2.837-25.707l-15.485-4.923s-.562,18.955-9.326,23.9Z" fill="#EDA59F"></path>
        <g opacity="0.15">
          <path d="M818.475,334.7l14.43-8.427-10.33-1.4A28.728,28.728,0,0,1,818.475,334.7Z"></path>
        </g>
        <path d="M849.557,312.252c-1.891,6.2-6.1,11.772-11.949,13.12-6.942,1.6-11.879,1.15-19.532.192-10.444-1.306-8.736-12.155-7.656-23.168,1.084-11.056,3.439-22.767,8.047-26.091,9.2-6.634,32.772,1.246,34.11,14.434C853.269,297.559,851.356,306.349,849.557,312.252Z" fill="#EDA59F"></path>
        <path d="M838.1,324.823c.2,1.1.37,1.583,1.39,1.138,4-1.748,13-5.517,18.112-23.213,4.584-15.856-4.56-23.776-12.22-27.153-6.6-2.91-22.559-5.335-30.639-1.746-6.963,3.092-1.624,12.979-1.624,12.979,4.09,3.786,16.926,4.273,21.787,5.09,4.449.748,4.436,3.5,4.059,5.225C836.673,307.626,837.4,320.95,838.1,324.823Z" fill="#0f1011"></path>
        <g>
          <circle cx="825.523" cy="302.826" r="1.449" fill="#0f1011"></circle>
          <circle cx="814.296" cy="300.477" r="1.449" fill="#0f1011"></circle>
          <path d="M816.088,297.535a.674.674,0,0,1-.077,0L812.2,297.1a.681.681,0,0,1,.152-1.354l3.814.43a.681.681,0,0,1-.075,1.357Z" fill="#0f1011"></path>
          <path d="M829.036,300.614a.674.674,0,0,1-.24-.044l-3.642-1.373a.681.681,0,0,1,.48-1.275l3.642,1.374a.681.681,0,0,1-.24,1.318Z" fill="#0f1011"></path>
        </g>
        <path d="M832.562,307.28a6.143,6.143,0,0,0,12.025,2.516,6.042,6.042,0,0,0-4.755-7.271C835.506,301.84,833.257,303.959,832.562,307.28Z" fill="#EDA59F"></path>
        <g opacity="0.15">
          <path d="M818.2,310.006a.478.478,0,0,1-.2-.044l-3.329-1.5a.5.5,0,0,1-.222-.716l2.91-4.783a.5.5,0,1,1,.854.52l-2.615,4.3,2.812,1.263a.5.5,0,0,1-.206.956Z"></path>
        </g>
        <path d="M823.441,314.066s-5.378-.1-8.935-1.87c0,0-.408,3.5,3.749,4.369S823.441,314.066,823.441,314.066Z" fill="#fff"></path>
      </g>
    </g>
    <path d="M780.186,237.047l-11.107-4.109s-1.4-15.256,11.41-23.323c4.246-2.673,7.344,2.079,6.566,3.631-2.571,5.13-5.62,9.851-5.559,14.781,1.642-1.533,4.01-3.494,4.708-2.779C788.04,227.129,780.186,237.047,780.186,237.047Z" fill="#EDA59F"></path>
    <path d="M944.7,575.778,940.538,555.2c-.062.013-.143.029-.239.053,1.509-.381,10.591-3.3,18.141-5.785l6.567,19.948C947.2,575.273,945.32,575.653,944.7,575.778Z" fill="#EDA59F"></path>
    <path d="M979.012,593.009a4.107,4.107,0,0,1-3.322,5.017h0a4.108,4.108,0,0,1-4.063-1.737l-13.8-21.772a3.463,3.463,0,0,1-.377-2.866,19.1,19.1,0,0,0,.557-11.948,17.03,17.03,0,0,0-5.239-7.793,1.546,1.546,0,0,1,.561-2.741l11.6-2.861a2.677,2.677,0,0,1,3.243,1.97Z" fill="#c1d8ed"></path>
    <path d="M789.947,719.728c-7.437-17.211-7.984-19.048-8.164-19.651l20.127-5.994c-.018-.061-.041-.139-.074-.233.515,1.469,4.236,10.253,7.388,17.549Z" fill="#EDA59F"></path>
    <path d="M767.7,735.793a4.108,4.108,0,0,1-5.295-2.859h0a4.109,4.109,0,0,1,1.365-4.2l20.448-15.7a3.46,3.46,0,0,1,2.82-.633,19.1,19.1,0,0,0,11.95-.516,17.041,17.041,0,0,0,7.292-5.917,1.547,1.547,0,0,1,2.781.313l3.889,11.3a2.678,2.678,0,0,1-1.671,3.408Z" fill="#c1d8ed"></path>
    <path d="M745.522,585.715c1.031-22.767,22.109-126.353,24.342-137.524l75.638,3.424s25.076,97.519,26.1,100.236l72.683-5.15,7.452,36.242L861.844,598.1a21.033,21.033,0,0,1-24.218-11.867s-28.582-84.019-29.159-85.568l-23.522,77.953L811.5,698.43l-35.33,10.99S745.105,594.922,745.522,585.715Z" fill="#55affc"></path>
    <path d="M914.956,267.238l11.82.728s6.2-15.25-2.256-27.8c-2.8-4.161-7.558-1.066-7.473.669.279,5.731,2.4,13.141.354,17.626-.882-2.065-2.256-4.816-3.183-4.444C911.778,254.992,914.956,267.238,914.956,267.238Z" fill="#EDA59F"></path>
    <path d="M912.306,260.764l-11.335,59.474L857.6,345.223a39.471,39.471,0,0,0-12.19-4.13l-.658-.132,1.371-7.635-31.872-5.075-1.727,7.239c-2.684-.421-4.419-.687-4.574-.706a30.769,30.769,0,0,0-8.655-.022l-32.336-41.117,19.037-59.9-20.781-6.6-20.785,65.4a10.9,10.9,0,0,0,1.821,10.041l37.355,47.5c-4.011,13.166-2.657,32.243-5.126,47.5-5.18,32.06-14.87,36.58-12.31,47.1,2.48,10.2,82.9,28.25,86.89,11.74,2.53-10.5-5.21-21.4-1.61-42.09,2.9-16.659,18.762-34.891,18.167-50.868l46.574-26.828a10.9,10.9,0,0,0,5.267-7.406l12.271-64.385Z" fill="#2f3235"></path>
  </g>
  <g>
    <g>
      <circle cx="364.36" cy="173.143" r="52.239" fill="#fdb754"></circle>
      <g opacity="0.29">
        <circle cx="364.36" cy="173.143" r="33.864" fill="#fff"></circle>
      </g>
    </g>
    <path d="M353.275,185.4l3.159-4.9c2.5,1.919,4.694,2.9,7.023,2.9,2.792,0,4.02-1.158,4.02-3.4,0-5.068-13-4.976-13-13.865,0-5.714,3.958-9.354,10.2-9.354a12.213,12.213,0,0,1,9.377,4.179l-3.623,4.15c-1.79-1.628-3.309-2.485-5.365-2.485-2.37,0-3.655.955-3.655,3.168,0,4.7,13,4.287,13,13.7,0,5.656-3.743,9.747-10.953,9.747A16.39,16.39,0,0,1,353.275,185.4Zm8.663-33.447h4.806v7.094h-4.806Zm0,34.333h4.806v7.783h-4.806Z" fill="#fff"></path>
  </g>
  <g>
    <g>
      <circle cx="504.287" cy="52.239" r="52.239" fill="#fdb754"></circle>
      <g opacity="0.29">
        <circle cx="504.287" cy="52.239" r="33.864" fill="#fff"></circle>
      </g>
    </g>
    <path d="M493.2,64.335l3.159-4.9c2.5,1.918,4.694,2.9,7.023,2.9,2.792,0,4.02-1.158,4.02-3.4,0-5.068-13-4.977-13-13.865,0-5.714,3.958-9.354,10.2-9.354a12.212,12.212,0,0,1,9.377,4.179l-3.623,4.15c-1.79-1.628-3.308-2.486-5.365-2.486-2.37,0-3.655.956-3.655,3.169,0,4.7,13,4.287,13,13.7,0,5.657-3.743,9.748-10.953,9.748A16.392,16.392,0,0,1,493.2,64.335Zm8.664-33.447h4.805v7.094h-4.805Zm0,34.332h4.805V73h-4.805Z" fill="#fff"></path>
  </g>
  <path d="M80.991,729.663C61.185,723.525,41.969,715.5,24.46,693.054c-3.593-4.6-6.97-10.494-5-16,1.482-4.143,5.769-6.8,10.124-7.476a20.962,20.962,0,0,1,4.9-.134c.008,0,.016,0,.019,0a41.248,41.248,0,0,1,7.413,1.454l.692.2a122.091,122.091,0,0,1,32.668,14.754,4.811,4.811,0,0,0,6.7-6.55,29.135,29.135,0,0,0-3.58-4.7,46.344,46.344,0,0,0-6.514-5.649c-3.114-2.271-6.436-4.3-9.687-6.373A268.4,268.4,0,0,1,27.954,636.7c-7.64-6.806-15.111-14.359-18.743-23.928-1.668-4.4-2.427-9.473-.437-13.737,3.284-7,12.586-8.963,20.194-7.51C42.3,594.079,52.946,603.85,62.389,613.59,70.22,621.683,79,630.644,90.246,631.141a9.85,9.85,0,0,0,5.546-1.112c3.21-1.944,4.035-6.448,2.891-10.024s-3.791-6.434-6.346-9.178C77.486,594.9,62.872,578.32,53.228,558.8s-13.914-42.571-7.213-63.3c1.964-6.06,4.916-11.956,9.522-16.358s11.063-7.162,17.385-6.32c8.613,1.135,15.1,8.405,19.464,15.909,15,25.753,14.083,57.308,18.308,86.808,1.182,8.259,2.9,16.729,7.82,23.527a5.553,5.553,0,0,0,1.726,1.61c4.048,2.344,7.68-2.383,9.2-6.394,6-15.868,7.5-34.016,18.242-47.15,4.1-5,9.9-9.179,16.365-9.138,7.895.054,14.655,6.648,16.959,14.2s.925,15.756-1.543,23.256c-4.582,13.906-12.8,26.395-22.472,37.379-5.1,5.8-10.871,11.655-12.4,19.219a15.333,15.333,0,0,0,4.813,14.133,8.988,8.988,0,0,0,6.655,2.176c2.592-.237,4.936-1.559,7.195-2.844.948-.54,1.9-1.088,2.857-1.625q5.659-3.222,11.321-6.453c9.595-5.474,21.182-11.067,31.176-6.353,5.1,2.41,8.441,7.149,10.013,12.586a27.541,27.541,0,0,1,0,15.1c-2.977,10.263-21.741,38.822-29.481,46.187C180.1,713.558,148.759,750.666,80.991,729.663Z" fill="#8ddbe0"></path>
  <rect x="173.918" y="212.73" width="537.616" height="366.261" rx="40.286" fill="#dee8f5"></rect>
  <rect x="568.681" y="350.469" width="142.853" height="106.435" fill="#fff"></rect>
  <circle cx="621.037" cy="403.687" r="34.069" fill="#dee8f5"></circle>
</svg>